# xmcd
#
# Track frame offsets:
#	182
#	25662
#	35400
#	47295
#	61222
#	71625
#	88780
#	105990
#	129542
#	147662
#	157420
#	170870
#	186850
#	205477
#	222287
#	238790
#	256887
#
# Disc length: 3594 seconds
# Revision: 0
# Processed by: cddbd v1.5.2PL0 Copyright (c) Steve Scherf et al.
# Submitted via: dBpowerAMP V12.0
#
DISCID=fe0e0811
DTITLE=John Denver - John Denver Legends 3
DYEAR=2001
DGENRE=Pop/Rock
TTITLE0=Flying for Me
TTITLE1=I Guess He'd Rather Be in Colorado
TTITLE2=It Amazes Me
TTITLE3=Rocky Mountain Suite (Cold Nights in Canada)
TTITLE4=Grandma's Feather Bed
TTITLE5=I Want to Live
TTITLE6=Come and Let Me Look in Your Eyes
TTITLE7=Sunshine on My Shoulders
TTITLE8=Looking for Space
TTITLE9=The Eagle and the Hawk
TTITLE10=Whispering Jesse
TTITLE11=Two Different Directions
TTITLE12=Dreamland Express
TTITLE13=It's About Time
TTITLE14=Autograph
TTITLE15=Windsong
TTITLE16=This Old Guitar
EXTD=
EXTT0=
EXTT1=
EXTT2=
EXTT3=
EXTT4=
EXTT5=
EXTT6=
EXTT7=
EXTT8=
EXTT9=
EXTT10=
EXTT11=
EXTT12=
EXTT13=
EXTT14=
EXTT15=
EXTT16=
PLAYORDER=
